# xmcd
#
# Track frame offsets:
#	150
#	16413
#	38648
#	66029
#
# Disc length: 1122 seconds
#
# Revision: 2
# Processed by: cddbd v1.5.2PL0 Copyright (c) Steve Scherf et al.
# Submitted via: audiograbber 1.83.01
#
DISCID=28046004
DTITLE=Tone To Bone - Tone To Bone
DYEAR=2005
DGENRE=Blues
TTITLE0=Little By Little
TTITLE1=Spider Web
TTITLE2=Crazy Baby
TTITLE3=Voodoo Woman
EXTD=www.Tone-To-Bone.de
EXTT0=
EXTT1=
EXTT2=
EXTT3=
PLAYORDER=
